<?xml version="1.0" encoding="UTF-8"?>
<svg width="55px" height="55px" viewBox="0 0 55 55" version="1.1" xmlns="http://www.w3.org/2000/svg" xmlns:xlink="http://www.w3.org/1999/xlink">
    <title>Website Assets/SVG/ai</title>
    <g id="Designs" stroke="none" stroke-width="1" fill="none" fill-rule="evenodd">
        <g id="Website" transform="translate(-1065, -1834)">
            <g id="Website-Assets/SVG/ai" transform="translate(1065, 1834)">
                <circle id="Oval" fill="#1F2D40" cx="27.5" cy="27.5" r="27.5"></circle>
                <path d="M28,12 C35.8979575,11.9984908 42.6148085,17.6921192 43.8133479,25.4043956 C45.0118874,33.116672 40.3333037,40.5387412 32.798652,42.8780247 L32.798652,32.1323458 L34.9900364,30.4098767 C36.2887337,31.2989119 38.053618,31.097308 39.1126907,29.9389432 C40.1717634,28.7805784 40.1958055,27.0255372 39.1688514,25.8392817 C38.1418973,24.6530263 36.3831818,24.4043112 35.0606071,25.2582995 C33.7380323,26.1122877 33.2627285,27.8035122 33.9503284,29.208889 L31.1991013,31.3738273 L31.1991013,43.3283951 C30.4076823,43.4811917 29.6055429,43.5736452 28.7997753,43.6049383 L28.7997753,24.9264199 C30.3595825,24.5285398 31.3765916,23.0468848 31.1736035,21.4680492 C30.9706154,19.8892136 29.6109619,18.7057912 28,18.7057912 C26.3890381,18.7057912 25.0293846,19.8892136 24.8263965,21.4680492 C24.6234084,23.0468848 25.6404175,24.5285398 27.2002247,24.9264199 L27.2002247,43.6049383 C26.3934202,43.5606217 25.591271,43.4549592 24.8008987,43.2888889 L24.8008987,31.3738273 L22.0496716,29.208889 C22.8034252,27.7237341 22.3168898,25.9164177 20.915926,24.9974036 C19.5149623,24.0783895 17.6401155,24.3366696 16.5470784,25.599259 C15.4540412,26.8618483 15.4865287,28.7317146 16.6227821,29.9565009 C17.7590356,31.1812873 19.6417501,31.3758489 21.0099636,30.4098767 L23.201348,32.1323458 L23.201348,42.8780247 C15.6666963,40.5387412 10.9881126,33.116672 12.1866521,25.4043956 C13.3851915,17.6921192 20.1020425,11.9984908 28,12 Z M19.2024714,26.2222224 C20.0858788,26.2222224 20.8020221,26.929723 20.8020221,27.8024693 C20.8020221,28.6752156 20.0858788,29.3827162 19.2024714,29.3827162 C18.319064,29.3827162 17.6029208,28.6752156 17.6029208,27.8024693 C17.6029208,26.929723 18.319064,26.2222224 19.2024714,26.2222224 Z M36.7975286,26.2222224 C37.680936,26.2222224 38.3970792,26.929723 38.3970792,27.8024693 C38.3970792,28.6752156 37.680936,29.3827162 36.7975286,29.3827162 C35.9141212,29.3827162 35.1979779,28.6752156 35.1979779,27.8024693 C35.1979779,26.929723 35.9141212,26.2222224 36.7975286,26.2222224 Z M28,20.2962965 C28.8834074,20.2962965 29.5995507,21.0037972 29.5995507,21.8765434 C29.5995507,22.7492897 28.8834074,23.4567903 28,23.4567903 C27.1165926,23.4567903 26.4004493,22.7492897 26.4004493,21.8765434 C26.4004493,21.0037972 27.1165926,20.2962965 28,20.2962965 Z" id="Combined-Shape" fill="#5B98EA" fill-rule="nonzero"></path>
            </g>
        </g>
    </g>
</svg>