<?xml version="1.0" encoding="UTF-8"?>
<svg width="40px" height="40px" viewBox="0 0 40 40" version="1.1" xmlns="http://www.w3.org/2000/svg" xmlns:xlink="http://www.w3.org/1999/xlink">
    <title>Website Assets/SVG/call</title>
    <g id="Designs" stroke="none" stroke-width="1" fill="none" fill-rule="evenodd">
        <g id="Website" transform="translate(-182, -6225)">
            <g id="Website-Assets/SVG/call" transform="translate(182, 6225)">
                <rect id="Rectangle-Copy" stroke="#979797" fill="#D8D8D8" opacity="0" x="0.5" y="0.5" width="39" height="39"></rect>
                <path d="M11.9085854,5.88070533 C12.7097401,5.89952233 13.3185666,6.28886598 13.6322623,6.72273597 C13.952653,7.16640606 17.1117073,11.9543682 17.458808,12.502254 C17.6930243,12.8711938 17.8106431,13.3548195 17.7527048,13.9103683 C17.7103108,14.3168682 17.571574,14.7696615 17.3397213,15.2084787 C17.1275614,15.6129638 16.4651151,16.781713 16.0512172,17.5091087 C16.540272,18.1750601 17.5929441,19.4882678 19.5506423,21.4456489 C21.5089677,23.4036572 22.8224253,24.4572246 23.4885368,24.9467475 C24.2155795,24.5327295 25.3825515,23.8711149 25.7849875,23.6596452 C26.8316377,23.1061082 27.8590516,23.1512665 28.477611,23.528921 C28.7372203,23.6877317 29.8694753,24.4329944 31.065791,25.2257496 L31.4658264,25.491021 C31.866016,25.7565728 32.263341,26.0207477 32.6278537,26.2635843 L33.0568077,26.5495933 C33.6789759,26.964813 34.1439391,27.2771639 34.2593818,27.357911 C34.7106104,27.6741573 35.1009927,28.2827511 35.1193356,29.0840596 C35.1310994,29.5979604 34.9898487,30.1959896 34.5775518,30.7839098 C33.9015464,31.7518293 30.7278498,35.1579686 29.4723023,35.11941 C28.2929063,35.0811124 23.5804806,35.0612052 14.7593614,26.2375607 C5.93376494,17.4106168 5.91809351,12.6962275 5.88139089,11.540223 C5.84065111,10.2658173 9.2471039,7.09297927 10.2155107,6.41591501 C10.8019011,6.00694392 11.3963176,5.86867352 11.9085854,5.88070533 Z" id="Path" stroke="#6FDBFF" stroke-width="2.24000003"></path>
            </g>
        </g>
    </g>
</svg>