<?xml version="1.0" encoding="UTF-8"?>
<svg width="55px" height="55px" viewBox="0 0 55 55" version="1.1" xmlns="http://www.w3.org/2000/svg" xmlns:xlink="http://www.w3.org/1999/xlink">
    <title>Website Assets/SVG/cybersecurity</title>
    <g id="Designs" stroke="none" stroke-width="1" fill="none" fill-rule="evenodd">
        <g id="Website" transform="translate(-610, -2110)">
            <g id="Website-Assets/SVG/cybersecurity" transform="translate(610, 2110)">
                <circle id="Oval" fill="#20302D" cx="27.5" cy="27.5" r="27.5"></circle>
                <path d="M27.467775,13.121165 C27.8048093,12.9598646 28.1956893,12.9593589 28.532225,13.121165 L40.2855472,18.7525228 C40.7217972,18.9613538 40.9995014,19.4063206 41,19.8952784 L41,31.2808656 C41,33.9279122 39.8468043,36.3777576 37.9158373,37.8335068 L28.7436192,44.7502118 C28.5232507,44.9165687 28.2619993,45 28.0002493,45 C27.7384993,45 27.4772479,44.9165687 27.2563808,44.7502118 L18.0841627,37.8335068 C16.1531957,36.377252 15,33.9279122 15,31.2808656 L15,19.8952784 C15,19.4063206 15.2777043,18.9613538 15.7139542,18.7525228 Z M27.9997507,15.6620264 L17.4923584,20.6962186 L17.4923584,31.2808656 C17.4923584,33.1320284 18.2696312,34.8234078 19.5709026,35.8048629 L27.9997507,42.1608086 L36.4285988,35.8048629 C37.7293716,34.8239134 38.5066444,33.1325341 38.5066444,31.2808656 L38.5066444,20.6962186 L27.9997507,15.6620264 Z M27.9997507,17.6193745 L36.7621431,21.8172315 L36.7621431,31.2808656 C36.7621431,32.57582 36.2486145,33.7362731 35.3880803,34.3850144 L27.9997507,39.9551893 L20.6124183,34.3850144 C19.7513855,33.7352618 19.2373583,32.5753143 19.2373583,31.2808656 L19.2373583,21.8172315 L27.9997507,17.6193745 Z M32.9091833,25.0902654 C32.4225776,24.5962512 31.6338377,24.5962512 31.1467334,25.0902654 L26.4985522,29.8043849 L24.8517709,28.1342426 C24.3656638,27.6402284 23.5759267,27.6402284 23.089321,28.1342426 C22.6022167,28.6277512 22.6022167,29.4281857 23.089321,29.9216943 L25.617078,32.4853097 C25.8603808,32.732064 26.1794665,32.8554411 26.4985522,32.8554411 C26.8176379,32.8554411 27.1367236,32.732064 27.3800265,32.4853097 L32.9096819,26.8772115 C33.3967861,26.3837029 33.3967861,25.5832684 32.9091833,25.0902654 Z" id="Combined-Shape" fill="#5EE3CA" fill-rule="nonzero"></path>
            </g>
        </g>
    </g>
</svg>