<?xml version="1.0" encoding="UTF-8"?>
<svg width="55px" height="55px" viewBox="0 0 55 55" version="1.1" xmlns="http://www.w3.org/2000/svg" xmlns:xlink="http://www.w3.org/1999/xlink">
    <title>Website Assets/SVG/nft</title>
    <g id="Designs" stroke="none" stroke-width="1" fill="none" fill-rule="evenodd">
        <g id="Website" transform="translate(-610, -1834)">
            <g id="Website-Assets/SVG/nft" transform="translate(610, 1834)">
                <circle id="Oval" fill="#332648" cx="27.5" cy="27.5" r="27.5"></circle>
                <path d="M27.5,12 L13,19.36 L13,37.637 L27.5,44 L42,37.637 L42,19.36 L27.5,12 Z M26.947,21.102 L20.5,24.326 L20.5,30 C20.5,30.553 20.052,31 19.5,31 C18.948,31 18.5,30.553 18.5,30 L18.5,23.708 C18.5,23.329 18.714,22.983 19.053,22.813 L26.053,19.313 C26.549,19.067 27.147,19.267 27.395,19.76 C27.642,20.254 27.442,20.855 26.948,21.102 L26.947,21.102 Z M36.5,33.043 C36.5,33.443 36.262,33.805 35.894,33.962 L28.997,36.918 C28.869,36.974 28.008,37.19 27.684,36.393 C27.466,35.886 27.702,35.298 28.209,35.081 L34.5,32.385 L34.5,26 C34.5,25.447 34.948,25 35.5,25 C36.052,25 36.5,25.447 36.5,26 L36.5,33.044 L36.5,33.043 Z" id="Shape" fill="#9E6EEB" fill-rule="nonzero"></path>
            </g>
        </g>
    </g>
</svg>