<?xml version="1.0" encoding="UTF-8"?>
<svg width="24px" height="24px" viewBox="0 0 24 24" version="1.1" xmlns="http://www.w3.org/2000/svg" xmlns:xlink="http://www.w3.org/1999/xlink">
    <title>Website Assets/SVG/prestigious</title>
    <g id="Designs" stroke="none" stroke-width="1" fill="none" fill-rule="evenodd">
        <g id="Website" transform="translate(-127, -3938)">
            <g id="Website-Assets/SVG/prestigious" transform="translate(127, 3938)">
                <rect id="Rectangle" stroke="#979797" fill="#D8D8D8" opacity="0" x="0.5" y="0.5" width="23" height="23"></rect>
                <path d="M20.4999022,6.00395973 C19.933682,6.00177428 19.4148677,6.31973378 19.1599236,6.82517632 C18.9049796,7.33061887 18.9577081,7.93670363 19.2961094,8.39055452 C19.2890766,9.59566895 18.5943054,10.6909569 17.5069243,11.2111563 C16.4195433,11.7313556 15.130501,11.5851171 14.1873638,10.8345608 C13.2442265,10.0840044 12.8126131,8.86093104 13.0758665,7.68488417 C13.8250341,7.20690507 14.1688326,6.29203087 13.9197883,5.43914363 C13.6707441,4.58625639 12.888606,4 11.9998751,4 C11.1111441,4 10.3290388,4.58634954 10.0800421,5.43925067 C9.83104541,6.29215179 10.174895,7.20700682 10.9240893,7.68494415 C11.1806161,8.85804085 10.7467224,10.0748048 9.80574317,10.8211115 C8.8647639,11.5674183 7.58087311,11.7130585 6.49655862,11.1964944 C5.41224413,10.6799302 4.71668793,9.59128726 4.70378632,8.39055452 C5.09649007,7.85611203 5.09060988,7.12704994 4.68933676,6.59900765 C4.28806364,6.07096536 3.58707279,5.86984354 2.96677021,6.10478477 C2.34646763,6.339726 1.95475154,6.95471343 2.00419412,7.61601246 C2.05363669,8.27731149 2.53244938,8.82724915 3.18079539,8.96739132 L4.72869617,17.2203864 C4.19094348,17.5407323 3.91020672,18.1624517 4.02556278,18.777545 C4.14091885,19.3926382 4.62786693,19.8704639 5.24517309,19.9743073 L5.24999306,20 L18.7499127,20 L18.7547326,19.9743073 C19.3720388,19.8704639 19.8589869,19.3926382 19.9743429,18.777545 C20.089699,18.1624517 19.8089622,17.5407323 19.2712096,17.2203864 L20.8191103,8.96741132 C21.5677968,8.80471946 22.0733204,8.10386582 21.9912896,7.34231195 C21.9092589,6.58075808 21.2660709,6.00356935 20.4999022,6.00395973 Z M10.4999618,15.5012728 C10.4999618,14.67308 11.1715307,14.001697 11.9999618,14.001697 C12.8283751,14.001697 13.4999439,14.67308 13.4999439,15.5012728 C13.4999439,16.3294656 12.8283751,17.0008485 11.9999618,17.0008485 C11.1715307,17.0008485 10.4999618,16.3294656 10.4999618,15.5012728 Z" id="Shape" fill="#FFFFFF" fill-rule="nonzero"></path>
            </g>
        </g>
    </g>
</svg>