<?xml version="1.0" encoding="UTF-8"?>
<svg width="40px" height="40px" viewBox="0 0 40 40" version="1.1" xmlns="http://www.w3.org/2000/svg" xmlns:xlink="http://www.w3.org/1999/xlink">
    <title>Website Assets/SVG/mail</title>
    <g id="Designs" stroke="none" stroke-width="1" fill="none" fill-rule="evenodd">
        <g id="Website" transform="translate(-182, -6131)">
            <g id="Website-Assets/SVG/mail" transform="translate(182, 6131)">
                <rect id="Rectangle" stroke="#979797" fill="#D8D8D8" opacity="0" x="0.5" y="0.5" width="39" height="39"></rect>
                <path d="M32.7801475,9.98911729 C33.9975608,9.98911729 34.9844694,10.9770487 34.9844694,12.1957239 L34.9844694,28.8042761 C34.9844694,30.0229513 33.9975608,31.0108827 32.7801475,31.0108827 L7.21985254,31.0108827 C6.00243916,31.0108827 5.01553063,30.0229513 5.01553063,28.8042761 L5.01553063,12.1957239 C5.01553063,10.9770487 6.00243916,9.98911729 7.21985254,9.98911729 L32.7801475,9.98911729 Z M7.08053063,13.6411173 L7.0811044,28.8042761 C7.0811044,28.880984 7.14322406,28.9431681 7.21985254,28.9431681 L32.7801475,28.9431681 C32.8567759,28.9431681 32.9188956,28.880984 32.9188956,28.8042761 L32.9185306,13.9001173 L20.5642337,21.9391883 C20.2166483,22.1653375 19.7674104,22.162059 19.4231695,21.9308609 L7.08053063,13.6411173 Z M31.9635306,12.0561173 L8.42653063,12.0561173 L20.0078533,19.8349396 L31.9635306,12.0561173 Z" id="Combined-Shape" fill="#6FDBFF" fill-rule="nonzero"></path>
            </g>
        </g>
    </g>
</svg>