<?xml version="1.0" encoding="UTF-8"?>
<svg width="55px" height="55px" viewBox="0 0 55 55" version="1.1" xmlns="http://www.w3.org/2000/svg" xmlns:xlink="http://www.w3.org/1999/xlink">
    <title>Website Assets/SVG/metaverse</title>
    <g id="Designs" stroke="none" stroke-width="1" fill="none" fill-rule="evenodd">
        <g id="Website" transform="translate(-155, -1834)">
            <g id="Website-Assets/SVG/metaverse" transform="translate(155, 1834)">
                <circle id="Oval" fill="#263F48" cx="27.5" cy="27.5" r="27.5"></circle>
                <path d="M28.4152491,20.0008376 C33.6041057,20.0219548 36.1113522,20.4385508 37.6529255,20.8137272 L37.8885571,20.8725577 C38.3827886,20.999002 38.7745715,21.1179074 39.1326094,21.2117812 C40.4803906,21.5653281 41.2005,22.1924687 41.6066406,23.1875 C41.6730469,23.3497969 41.7322813,23.521125 41.7830156,23.7036094 C42.0884844,24.7998438 42.5897188,28.5313437 42.787875,30.625 C42.8247969,31.0149375 42.8510938,31.3475 42.8638438,31.5966563 C42.9445938,33.1795156 42.5947656,33.855 41.5752969,34.5323438 L41.2158925,34.7702412 C40.6749862,35.1245404 40.1047727,35.4725838 39.2189375,35.8846406 C38.1359844,36.3877344 36.8134375,37 35.3604688,37 C34.4522969,37 31.4618906,36.3975625 30.3611406,36.2108281 C29.6450156,36.0894375 28.6792031,36.0209062 28,36.0209062 C27.3210625,36.0209062 26.35525,36.0894375 25.6393906,36.2108281 C24.538375,36.3975625 21.5479688,37 20.6397969,37 C19.1870938,37 17.8642813,36.3877344 16.7813281,35.8846406 C15.698375,35.38075 15.0877031,34.9730156 14.4239063,34.5323437 C13.4049688,33.855 13.0554063,33.1795156 13.1361563,31.5966563 C13.1489063,31.3482969 13.1754688,31.0149375 13.2123906,30.625 C13.2809832,29.9002728 13.3858276,28.9792952 13.5063106,28.0393028 L13.5887232,27.4117692 C13.7994156,25.8456176 14.0408239,24.3360523 14.2175156,23.7036094 C14.2685156,23.521125 14.3274844,23.3497969 14.3938906,23.1875 C14.8002969,22.1924687 15.5206719,21.5653281 16.8681875,21.2117812 C17.2260336,21.1179074 17.6176708,20.999002 18.1117917,20.8725577 L18.3473746,20.8137272 C19.8864631,20.4390845 22.3887635,20.0231399 27.5626242,20.0009301 L28.4152491,20.0008376 Z M43.9375,23.1875 C44.521875,23.1875 45,23.665625 45,24.25 L45,29.5625 C45,30.146875 44.521875,30.625 43.9375,30.625 L43.8551563,30.625 C43.6583281,28.4848594 43.1382344,24.6062031 42.8064688,23.4177969 C42.7844219,23.3389063 42.7599844,23.2634688 42.7355469,23.1875 L43.9375,23.1875 Z M13.2649844,23.1875 C13.2408125,23.2634688 13.2161094,23.3389063 13.1940625,23.4177969 C12.8628281,24.6051406 12.3422031,28.4843281 12.1451094,30.625 L12.0625,30.625 C11.478125,30.625 11,30.146875 11,29.5625 L11,24.25 C11,23.665625 11.478125,23.1875 12.0625,23.1875 Z" id="Combined-Shape" fill="#50C5EF" fill-rule="nonzero"></path>
            </g>
        </g>
    </g>
</svg>