<?xml version="1.0" encoding="UTF-8"?>
<svg width="40px" height="40px" viewBox="0 0 40 40" version="1.1" xmlns="http://www.w3.org/2000/svg" xmlns:xlink="http://www.w3.org/1999/xlink">
    <title>Website Assets/SVG/pin</title>
    <g id="Designs" stroke="none" stroke-width="1" fill="none" fill-rule="evenodd">
        <g id="Website" transform="translate(-182, -6310)">
            <g id="Website-Assets/SVG/pin" transform="translate(182, 6310)">
                <rect id="Rectangle-Copy-2" stroke="#979797" fill="#D8D8D8" opacity="0" x="0.5" y="0.5" width="39" height="39"></rect>
                <path d="M10.7984019,7.89698821 C15.8901665,2.70100393 24.1132302,2.70100393 29.2049948,7.89698821 C34.2695307,13.0929725 34.2695307,21.5573985 29.1777661,26.7533828 L20.0016984,36 L10.7984019,26.7813182 C5.73386602,21.5573985 5.73386602,13.0929725 10.7984019,7.89698821 Z M20.0016984,6.22086425 C17.1154575,6.22086425 14.3925887,7.39415103 12.3504371,9.48930598 C10.3082856,11.5844609 9.19190936,14.3780009 9.19190936,17.3391532 C9.19190936,20.3003055 10.3082856,23.0938455 12.3504371,25.1890004 L20.0016984,32.8712353 L27.6529596,25.161065 C29.6951112,23.0659101 30.8387161,20.3003055 30.8114874,17.3112178 C30.8114874,14.3500655 29.6951112,11.5565255 27.6529596,9.46137058 C25.610808,7.36621563 22.8879393,6.22086425 20.0016984,6.22086425 Z M20.0016984,11.6123963 C23.0785401,11.6123963 25.5563507,14.2103885 25.5563507,17.3391532 C25.5563507,20.4679179 23.0785401,23.0379747 20.0016984,23.0379747 C16.9248567,23.0379747 14.4470461,20.4399825 14.4470461,17.3112178 C14.4470461,14.1824531 16.9248567,11.6123963 20.0016984,11.6123963 Z M20.0016984,13.8472283 C18.1501476,13.8472283 16.6253411,15.439546 16.6253411,17.3391532 C16.6253411,19.2387604 18.1501476,20.8031427 20.0016984,20.8031427 C21.8532491,20.8031427 23.3780556,19.210825 23.3780556,17.3112178 C23.3780556,15.4116107 21.8532491,13.8472283 20.0016984,13.8472283 Z" id="Combined-Shape" fill="#6FDBFF" fill-rule="nonzero"></path>
            </g>
        </g>
    </g>
</svg>